<?xml version="1.0" encoding="UTF-8" standalone="no"?>
<!-- Created with Inkscape (http://www.inkscape.org/) -->

<svg
   width="143.77545mm"
   height="134.77414mm"
   viewBox="0 0 143.77545 134.77414"
   version="1.1"
   id="svg5"
   xml:space="preserve"
   inkscape:version="1.2 (dc2aeda, 2022-05-15)"
   sodipodi:docname="logo.svg"
   xmlns:inkscape="http://www.inkscape.org/namespaces/inkscape"
   xmlns:sodipodi="http://sodipodi.sourceforge.net/DTD/sodipodi-0.dtd"
   xmlns="http://www.w3.org/2000/svg"
   xmlns:svg="http://www.w3.org/2000/svg"><sodipodi:namedview
     id="namedview7"
     pagecolor="#ffffff"
     bordercolor="#c40000"
     borderopacity="1"
     inkscape:showpageshadow="2"
     inkscape:pageopacity="0"
     inkscape:pagecheckerboard="true"
     inkscape:deskcolor="#d1d1d1"
     inkscape:document-units="mm"
     showgrid="false"
     inkscape:zoom="0.5946522"
     inkscape:cx="-652.48224"
     inkscape:cy="264.8607"
     inkscape:window-width="2560"
     inkscape:window-height="1027"
     inkscape:window-x="1"
     inkscape:window-y="25"
     inkscape:window-maximized="0"
     inkscape:current-layer="layer1"
     showborder="false"
     shape-rendering="auto" /><defs
     id="defs2" /><g
     inkscape:label="Layer 1"
     inkscape:groupmode="layer"
     id="layer1"
     transform="translate(-31.938292,-65.016386)"><path
       style="fill:#541290;fill-opacity:1;stroke-width:0.264583"
       d="m 97.264777,199.66576 c -2.340361,-0.10505 -5.534761,-0.43666 -7.143751,-0.7416 -1.60073,-0.30337 -4.45823,-0.98395 -6.35,-1.51239 -1.89177,-0.52845 -4.96621,-1.55511 -6.83209,-2.28147 -1.86588,-0.72636 -4.90197,-2.09307 -6.74688,-3.03712 -1.8449,-0.94406 -5.02124,-2.82984 -7.05853,-4.19064 -2.03729,-1.3608 -4.65667,-3.26864 -5.82084,-4.23965 -1.16416,-0.97101 -3.3317,-2.93856 -4.81674,-4.37233 -1.48504,-1.43377 -2.90325,-2.99826 -3.15158,-3.47664 -0.24833,-0.47838 -0.45152,-1.34603 -0.45152,-1.92811 0,-0.58208 0.21057,-1.464 0.46792,-1.95982 0.25734,-0.49582 1.02072,-1.49417 1.69637,-2.21854 0.67566,-0.72438 2.12144,-1.99708 3.21284,-2.82822 1.09141,-0.83115 4.99267,-3.49013 8.66948,-5.90884 3.6768,-2.41871 7.6654,-5.13703 8.86354,-6.04069 1.19814,-0.90367 3.31248,-2.62301 4.69852,-3.82076 1.38605,-1.19775 3.35895,-3.11138 4.38424,-4.25251 1.02529,-1.14113 2.64024,-3.14635 3.58877,-4.45604 0.94853,-1.30969 1.81176,-2.5323 1.91829,-2.71693 0.10652,-0.18463 -0.85652,0.71838 -2.14009,2.00668 -1.28359,1.28829 -3.52441,3.2354 -4.97962,4.3269 -1.45521,1.0915 -3.79978,2.77104 -5.21016,3.73232 -1.41037,0.96127 -6.411,4.03446 -11.1125,6.82931 -4.70149,2.79484 -9.66148,5.85217 -11.02218,6.79405 -1.36071,0.94189 -3.43385,2.55969 -4.60697,3.59513 l -2.13297,1.88261 0.16976,-2.90628 c 0.0934,-1.59846 0.39926,-3.91832 0.67978,-5.15525 0.28052,-1.23692 0.86305,-3.26584 1.29451,-4.5087 0.43146,-1.24286 1.3864,-3.46398 2.12209,-4.93584 0.73568,-1.47185 1.66033,-3.1934 2.05478,-3.82567 0.39444,-0.63227 1.37583,-1.92348 2.18086,-2.86937 0.80502,-0.94589 2.48522,-2.77183 3.73376,-4.05766 1.24854,-1.28583 3.10351,-3.02314 4.12216,-3.8607 1.01864,-0.83756 2.68552,-2.07467 3.70416,-2.74914 1.01865,-0.67447 3.14121,-1.71171 4.7168,-2.30499 1.5756,-0.59327 4.4331,-1.50418 6.35,-2.02423 1.91691,-0.52004 4.20327,-1.26827 5.08081,-1.66271 0.87754,-0.39445 2.02951,-1.09822 2.55992,-1.56392 0.71985,-0.63204 1.03524,-1.17711 1.2438,-2.14958 0.18908,-0.88166 0.19502,-1.74781 0.0184,-2.67931 -0.18048,-0.95169 -0.60206,-1.81851 -1.36606,-2.80879 -0.60776,-0.78775 -1.70845,-1.93651 -2.44599,-2.55278 -0.73753,-0.61627 -1.99582,-1.52604 -2.79618,-2.02171 -0.80037,-0.49567 -2.2133,-1.61928 -3.13986,-2.49691 -0.92655,-0.87763 -2.15314,-2.28289 -2.72574,-3.12279 -0.57261,-0.83992 -1.21843,-2.02971 -1.43516,-2.64399 -0.21673,-0.61428 -0.40333,-1.59395 -0.41466,-2.17705 -0.0113,-0.58311 0.2425,-2.03408 0.56408,-3.22439 0.50665,-1.875364 0.77652,-2.376194 2.02199,-3.752484 0.79052,-0.87355 1.85756,-1.84801 2.3712,-2.16546 0.51365,-0.31744 0.88468,-0.6264 0.82452,-0.68655 -0.0602,-0.0602 -1.22728,0.41629 -2.5936,1.05878 -1.36633,0.64249 -3.4067,1.47456 -4.53417,1.84905 -1.12747,0.37448 -3.01586,0.86411 -4.19642,1.08806 -1.18056,0.22395 -2.28215,0.40475 -2.44797,0.40177 -0.16583,-0.003 0.77006,-0.51926 2.07975,-1.14732 1.30968,-0.62806 3.95305,-2.10968 5.87415,-3.29249 1.9211,-1.18281 4.42802,-2.62073 5.57093,-3.19538 1.14292,-0.57464 2.7779,-1.17418 3.63329,-1.33231 0.8554,-0.15813 2.45614,-0.28544 3.5572,-0.28292 1.10106,0.003 2.83537,0.1785 3.85401,0.39105 1.01865,0.21255 2.94482,0.92578 4.28039,1.58494 1.34451,0.66359 3.05678,1.77143 3.83645,2.48219 0.87206,0.79497 2.214001,1.63545 3.524831,2.20765 1.164173,0.50817 6.283863,2.28107 11.377093,3.93978 6.09111,1.983704 9.00582,3.045034 8.51652,3.101134 -0.40914,0.0469 -2.73086,-0.16642 -5.15938,-0.47407 -2.42851,-0.30765 -6.79673,-0.91871 -9.70714,-1.35791 -4.411113,-0.66567 -5.952093,-0.78732 -9.260434,-0.73103 -2.18281,0.0371 -4.68312,0.0572 -5.55625,0.0446 -0.87312,-0.0126 -2.54,-0.0643 -3.70416,-0.11485 -1.62346,-0.0705 -2.30939,0.0129 -2.94377,0.35793 -0.52225,0.28407 -0.98739,0.8505 -1.262,1.53682 -0.35606,0.88987 -0.38169,1.28747 -0.14137,2.19298 0.20282,0.76421 0.71575,1.5149 1.65966,2.42896 0.96481,0.9343 2.3417,1.8049 4.68717,2.96365 1.82658,0.90241 4.10969,2.24956 5.07358,2.99367 0.96388,0.74411 2.24797,2.00915 2.85353,2.81121 0.60555,0.80205 1.336681,1.99105 1.624731,2.64223 0.28811,0.65132 0.63841,2.30497 0.77865,3.67584 0.16209,1.58424 0.16396,4.06092 0.005,6.79952 -0.18278,3.15208 -0.40628,4.80445 -0.83316,6.1597 -0.32086,1.01865 -1.032751,2.74506 -1.581971,3.83646 -0.54922,1.09141 -1.6768,2.93688 -2.50574,4.10105 -0.82893,1.16416 -2.41958,3.04858 -3.53477,4.18759 -1.11518,1.13901 -2.92058,2.81437 -4.01199,3.72303 -1.0914,0.90866 -2.52015,2.03494 -3.175,2.50285 -0.65484,0.46791 -3.33375,2.26601 -5.95312,3.99578 -2.61938,1.72977 -5.6235,3.80821 -6.67583,4.61876 -1.05233,0.81056 -2.24205,1.97046 -2.64381,2.57756 -0.64387,0.97295 -0.72783,1.34176 -0.70814,3.11058 0.0177,1.58883 0.1904,2.42313 0.82932,4.00598 0.44385,1.09958 1.31016,2.82598 1.92515,3.83646 0.61499,1.01048 1.74336,2.61115 2.5075,3.55703 0.76413,0.94589 2.2681,2.57587 3.34215,3.62217 1.07405,1.04631 2.42908,2.28319 3.01116,2.74861 0.58208,0.46543 2.30849,1.6766 3.83646,2.6915 1.52797,1.01489 4.20687,2.541 5.95312,3.39134 1.74625,0.85034 4.78235,2.08172 6.74688,2.73639 1.96453,0.65468 5.060161,1.48865 6.879174,1.85329 1.81901,0.36463 4.67651,0.80106 6.35,0.96984 1.82365,0.18392 4.57552,0.23971 6.86852,0.13924 2.10419,-0.0922 5.06712,-0.35195 6.58427,-0.57722 1.51715,-0.22528 4.13392,-0.75697 5.81505,-1.18155 1.68113,-0.42457 3.09613,-0.73242 3.14445,-0.68409 0.0483,0.0483 -1.19444,0.57874 -2.76169,1.17871 -1.56726,0.59997 -3.6759,1.3436 -4.68588,1.65251 -1.00998,0.30891 -3.51029,0.90709 -5.55625,1.32929 -2.47859,0.51148 -4.86772,0.81322 -7.15951,0.90422 -1.89177,0.0751 -4.57068,0.17354 -5.95313,0.21874 -1.38244,0.0452 -4.418543,-0.003 -6.746883,-0.10783 z M 93.798616,96.538186 c 0.0753,-0.12187 -0.3046,-0.64358 -0.84428,-1.15934 -0.53968,-0.51577 -1.24129,-1.0709 -1.55915,-1.23362 -0.31785,-0.16273 -0.86356,-0.29587 -1.21267,-0.29587 -0.34912,0 -0.70653,0.0718 -0.79425,0.1595 -0.0877,0.0877 -0.0443,0.47467 0.0966,0.85989 0.14083,0.38522 0.57971,0.9677 0.97529,1.2944 0.51863,0.42832 1.06542,0.59436 1.9604,0.59531 0.68263,8e-4 1.30278,-0.0984 1.3781,-0.22027 z m 12.065124,94.955424 c -1.23693,-0.25965 -3.20146,-0.73048 -4.36563,-1.04629 -1.16416,-0.3158 -2.950103,-0.88524 -3.968753,-1.26542 -1.018641,-0.38018 -2.804581,-1.16339 -3.968751,-1.74047 -1.16417,-0.57708 -2.83943,-1.56198 -3.7228,-2.18866 -0.88338,-0.62669 -2.25259,-1.83949 -3.04271,-2.69511 -0.79011,-0.85562 -1.77509,-2.18127 -2.18883,-2.9459 -0.414,-0.76511 -0.90518,-2.27088 -1.09236,-3.34874 -0.22725,-1.30867 -0.26331,-2.37914 -0.10868,-3.2262 0.12728,-0.69722 0.64481,-2.11004 1.15007,-3.1396 0.6283,-1.28028 1.53017,-2.49283 2.85349,-3.83645 1.06415,-1.0805 3.12178,-2.7565 4.57249,-3.72445 1.45072,-0.96795 3.94735,-2.41214 5.548081,-3.20932 1.60073,-0.79718 4.577303,-2.07497 6.614593,-2.83955 2.03729,-0.76457 4.77573,-1.72584 6.08541,-2.13615 1.30969,-0.41031 4.34579,-1.27305 6.74688,-1.91719 2.40109,-0.64415 7.69937,-1.97194 11.77396,-2.95064 4.07458,-0.9787 9.26671,-2.29822 11.53807,-2.93227 2.27136,-0.63405 5.54557,-1.69944 7.27604,-2.36754 1.73047,-0.66809 4.03927,-1.69525 5.13068,-2.28256 1.09141,-0.58732 2.46063,-1.45257 3.04271,-1.92278 0.58208,-0.47021 1.21989,-0.9507 1.41735,-1.06775 0.28597,-0.16953 0.32236,-0.0311 0.17885,0.68016 -0.0991,0.49115 -0.48004,1.69828 -0.84654,2.68252 -0.36651,0.98423 -1.26132,2.70089 -1.98849,3.8148 -0.72717,1.11391 -1.99606,2.73325 -2.81977,3.59855 -0.82371,0.86529 -2.39062,2.09825 -3.48203,2.7399 -1.0914,0.64166 -3.0875,1.52113 -4.43576,1.95439 -1.34826,0.43326 -3.50338,1.02207 -4.78914,1.30847 -1.28577,0.2864 -4.58796,0.82201 -7.3382,1.19026 -2.75024,0.36824 -5.83388,0.78799 -6.85252,0.93278 -1.01865,0.1448 -3.51896,0.50847 -5.55625,0.80817 -2.03729,0.2997 -4.89479,0.78279 -6.35,1.07353 -1.45521,0.29075 -3.95552,0.83888 -5.55625,1.21807 -1.60073,0.37919 -3.02467,0.79086 -3.16431,0.91481 -0.14191,0.12597 0.26653,0.16364 0.92604,0.0854 0.64896,-0.077 4.9304,-0.3792 9.51431,-0.67163 4.58391,-0.29242 11.51174,-0.76637 15.39519,-1.05322 3.88345,-0.28684 7.9911,-0.51757 9.12812,-0.51273 2.06731,0.009 2.06731,0.009 1.43448,0.53582 -0.34806,0.28985 -1.77681,1.20029 -3.175,2.02319 -1.39819,0.8229 -3.49467,1.93554 -4.65883,2.47254 -1.16417,0.537 -3.30729,1.42174 -4.7625,1.9661 -1.45521,0.54436 -4.19365,1.3941 -6.08542,1.8883 -1.89177,0.49421 -5.88036,1.24837 -8.86354,1.67591 -2.98318,0.42754 -7.56708,1.02988 -10.18646,1.33854 -2.61937,0.30866 -4.996303,0.65274 -5.282053,0.76462 -0.34415,0.13474 0.59866,0.35326 2.792723,0.64729 1.82175,0.24413 5.32566,0.57419 7.78647,0.73346 3.2878,0.2128 5.67845,0.20987 9.01575,-0.0111 2.49786,-0.16536 5.59759,-0.48314 6.8883,-0.70617 1.2907,-0.22304 3.53735,-0.7041 4.99256,-1.06903 1.45521,-0.36493 3.5388,-0.9681 4.63021,-1.34038 1.09141,-0.37228 2.99641,-1.09268 4.23333,-1.60091 1.23693,-0.50822 3.0824,-1.34247 4.10104,-1.8539 1.01865,-0.51142 3.04271,-1.64714 4.49792,-2.52382 1.45521,-0.87668 3.5388,-2.25022 4.63021,-3.05231 1.09141,-0.80209 3.18378,-2.49965 4.64971,-3.77235 1.46594,-1.2727 3.28346,-2.99032 4.03893,-3.81693 0.75548,-0.82661 2.06911,-2.35455 2.91919,-3.39542 0.85009,-1.04087 2.28924,-3.02359 3.19811,-4.40604 0.90888,-1.38245 2.22169,-3.70416 2.91735,-5.15937 0.69566,-1.45521 1.57184,-3.59834 1.94706,-4.7625 0.37521,-1.16417 0.85299,-2.71198 1.06172,-3.43959 0.3795,-1.32291 0.3795,-1.32291 0.39933,-0.13229 0.0109,0.65485 -0.09,2.69163 -0.22431,4.5262 -0.13428,1.83457 -0.49411,4.57301 -0.79964,6.08542 -0.30552,1.51241 -0.91389,3.99809 -1.35194,5.52374 -0.43804,1.52564 -1.31169,4.09164 -1.94144,5.70223 -0.62975,1.61058 -1.64789,3.93421 -2.26253,5.1636 -0.61464,1.2294 -1.89102,3.5242 -2.83639,5.09955 -0.94537,1.57535 -2.59506,4.04161 -3.66598,5.48058 -1.07091,1.43896 -3.23078,3.9495 -4.7997,5.57897 -1.56893,1.62948 -3.98369,3.8662 -5.36614,4.97049 -1.38244,1.1043 -3.55916,2.70252 -4.83714,3.5516 -1.27797,0.84907 -3.89735,2.28968 -5.82083,3.20134 -1.92348,0.91167 -4.27114,1.91061 -5.21703,2.21989 -0.94588,0.30927 -2.85088,0.86573 -4.23333,1.23657 -1.68437,0.45183 -3.47364,0.71467 -5.42396,0.79676 -1.60073,0.0674 -5.70838,0.17374 -9.12812,0.23637 -5.25764,0.0963 -6.56498,0.041 -8.46667,-0.35822 z m -65.455764,-28.006 c -0.85509,-1.4989 -2.1433,-4.04432 -2.86268,-5.65648 -0.71937,-1.61216 -1.77033,-4.31485 -2.33544,-6.00597 -0.56512,-1.69112 -1.38129,-4.62258 -1.81371,-6.51435 -0.43242,-1.89177 -0.92922,-4.63021 -1.104,-6.08542 -0.17478,-1.45521 -0.33166,-5.62239 -0.34862,-9.26042 -0.0273,-5.86109 0.0369,-6.95958 0.56362,-9.6432 0.32694,-1.66573 0.69864,-3.1328 0.82599,-3.26015 0.13234,-0.13234 0.2904,1.39199 0.36892,3.55777 0.0985,2.71825 0.30498,4.42502 0.73038,6.03829 0.32615,1.23693 1.05191,3.30762 1.61278,4.60153 0.56087,1.29392 1.40252,2.96079 1.87033,3.70417 0.4678,0.74338 1.55224,2.26968 2.40985,3.39178 0.85761,1.1221 2.79818,3.13098 4.31236,4.46418 1.51418,1.33319 2.75306,2.58786 2.75306,2.78815 0,0.2003 -0.53422,1.40783 -1.18715,2.68341 -0.65293,1.27559 -1.59083,3.51796 -2.08423,4.98305 -0.49339,1.4651 -1.09352,3.78509 -1.33362,5.15554 -0.24009,1.37046 -0.52351,3.68236 -0.62983,5.13757 l -0.19329,2.64583 z m 54.60784,-13.62938 c 0,-0.0698 2.166081,-1.83588 4.813511,-3.92466 2.647423,-2.08877 5.415633,-4.27569 6.151563,-4.85983 0.73593,-0.58414 2.40962,-1.88594 3.71931,-2.89288 1.30968,-1.00694 2.82307,-2.22113 3.36308,-2.6982 0.98183,-0.86738 0.98183,-0.86738 0.13229,-0.99698 -0.46725,-0.0713 -2.33782,-0.32526 -4.15683,-0.56441 -1.81901,-0.23915 -3.40806,-0.5302 -3.53123,-0.64679 -0.12317,-0.11658 1.66277,-0.65295 3.96875,-1.19193 2.30598,-0.53897 6.63347,-1.56647 9.61665,-2.28332 2.98317,-0.71685 6.8527,-1.78661 8.59895,-2.37724 1.74625,-0.59063 4.78087,-1.84325 6.74359,-2.7836 1.96273,-0.94034 4.87976,-2.58505 6.4823,-3.6549 1.60253,-1.06986 3.90798,-2.87167 5.12322,-4.00405 2.20951,-2.05888 2.20951,-2.05888 3.30729,-1.76713 0.69133,0.18374 2.4692,0.23786 4.80194,0.14618 2.07034,-0.0814 4.46272,-0.0248 5.42396,0.12824 0.94588,0.1506 2.40139,0.53045 3.23447,0.84411 0.83307,0.31366 2.20596,1.07919 3.05086,1.70117 0.8449,0.62198 1.8897,1.21543 2.32178,1.31879 0.43208,0.10337 2.30364,0.66223 4.15903,1.24193 1.85539,0.5797 3.37344,1.16944 3.37344,1.31052 0,0.14108 -0.57463,0.25652 -1.27696,0.25652 -0.70233,0 -2.57413,0.13055 -4.15955,0.29011 -1.58542,0.15956 -3.89805,0.58185 -5.13918,0.9384 -1.24113,0.35657 -3.02774,1.0063 -3.97025,1.44386 -0.94251,0.43756 -2.48958,1.28561 -3.43793,1.88455 -0.94836,0.59894 -2.31534,1.55618 -3.03773,2.1272 -0.72239,0.57102 -2.26763,1.51797 -3.43386,2.10434 -1.16623,0.58637 -3.49295,1.51436 -5.1705,2.06221 -1.67754,0.54785 -4.24071,1.18982 -5.69592,1.42659 -1.4552,0.23678 -3.77692,0.54576 -5.15937,0.68662 -1.38245,0.14086 -4.19686,0.25818 -6.25426,0.2607 -3.19828,0.004 -4.08071,0.10162 -6.08541,0.67376 -1.28959,0.36805 -3.41627,1.1985 -4.72596,1.84545 -1.30968,0.64694 -5.06015,2.61079 -8.33437,4.36411 -3.27422,1.75331 -7.85813,4.16591 -10.186463,5.36132 -2.32834,1.19542 -4.322631,2.21458 -4.431771,2.2648 -0.10914,0.0502 -0.19844,0.0342 -0.19844,-0.0356 z m 68.898664,-29.2562 c 0.48027,-0.18838 0.47483,-0.22467 -0.11604,-0.77516 -0.42855,-0.39925 -0.9516,-0.57627 -1.69449,-0.57347 -0.59102,0.002 -1.24338,0.1109 -1.4497,0.24148 -0.29327,0.18563 -0.17781,0.35771 0.52917,0.78871 0.49735,0.30321 1.20193,0.54336 1.56574,0.53368 0.3638,-0.01 0.88819,-0.10655 1.16532,-0.21524 z M 51.186686,138.97397 c -0.45889,-0.19965 -1.75806,-1.23679 -2.88704,-2.30475 -1.12899,-1.06796 -2.73462,-2.79612 -3.56807,-3.84036 -0.83346,-1.04424 -1.98946,-2.77065 -2.56889,-3.83646 -0.57943,-1.06581 -1.36285,-2.77128 -1.74094,-3.78993 -0.37808,-1.01864 -0.8757,-2.56645 -1.10581,-3.43958 -0.29886,-1.13397 -0.42022,-2.83691 -0.4248,-5.96079 -0.003,-2.40532 0.12819,-5.59655 0.2927,-7.09164 0.16452,-1.49508 0.60132,-3.63475 0.97067,-4.75482 0.36936,-1.12007 1.26046,-3.28225 1.98024,-4.804844 0.71978,-1.52259 1.92143,-3.72525 2.67035,-4.89479 0.74891,-1.16954 2.06118,-3.01941 2.91615,-4.11082 0.85498,-1.0914 2.52937,-2.9822 3.72089,-4.20177 1.19151,-1.21957 3.05936,-3.00778 4.15076,-3.97381 1.09141,-0.96604 2.93688,-2.47349 4.10104,-3.349907 1.16417,-0.876411 3.28856,-2.345902 4.72087,-3.265535 1.43231,-0.919631 4.11121,-2.433418 5.95312,-3.363971 1.84191,-0.930553 4.29226,-2.05237 5.44522,-2.492928 1.15296,-0.440558 3.35561,-1.207328 4.89479,-1.703935 1.53918,-0.496605 3.57241,-1.099077 4.5183,-1.338824 0.94588,-0.239747 2.91018,-0.66289 4.3651,-0.940318 2.22929,-0.425088 3.85206,-0.503331 10.318751,-0.49751 4.220393,0.0038 9.484753,0.118415 11.698583,0.254704 2.53518,0.156075 5.17954,0.505346 7.14375,0.943562 1.71524,0.38267 4.86074,1.268305 6.99002,1.96808 2.12927,0.699775 5.16537,1.832933 6.74687,2.518132 1.58151,0.685197 3.8875,1.790533 5.12443,2.456305 1.23693,0.665768 3.20146,1.800177 4.36562,2.520907 1.16417,0.720731 3.42636,2.293133 5.02709,3.494228 1.60073,1.20109 3.86292,3.09395 5.02708,4.20635 l 2.11667,2.02255 -2.29775,-1.73523 c -1.26376,-0.95437 -3.64501,-2.5733 -5.29167,-3.59762 -1.64665,-1.02432 -4.54173,-2.62025 -6.4335,-3.546508 -1.89177,-0.926262 -4.37108,-2.052249 -5.50958,-2.502197 -1.1385,-0.449947 -3.46021,-1.240282 -5.15937,-1.756299 -1.69916,-0.516016 -4.39907,-1.219377 -5.9998,-1.563023 -1.60073,-0.343646 -4.27963,-0.840423 -5.95312,-1.103945 -2.42008,-0.38109 -4.55869,-0.477057 -10.45105,-0.468984 -6.36177,0.0087 -7.912923,0.09288 -10.980214,0.595786 -1.96453,0.322098 -5.11968,0.992642 -7.01146,1.490099 -1.89177,0.497453 -4.45161,1.275016 -5.68854,1.727914 -1.23692,0.452898 -3.69235,1.518375 -5.45651,2.367727 -1.76415,0.849352 -4.25754,2.235753 -5.54087,3.080891 -1.28333,0.845139 -3.36145,2.399229 -4.61804,3.453529 -1.25659,1.0543 -2.97984,2.72838 -3.82943,3.72017 -0.84959,0.99179 -2.07226,2.61571 -2.71704,3.60871 -0.64478,0.99299 -1.51741,2.56651 -1.93918,3.49671 -0.42177,0.93019 -1.05435,2.68334 -1.40573,3.89589 -0.35138,1.21255 -0.72251,3.27369 -0.82472,4.580314 -0.11283,1.44233 -0.0675,3.1387 0.11548,4.31777 0.16572,1.06815 0.61682,2.89669 1.00243,4.06343 0.38561,1.16673 1.25665,3.04567 1.93564,4.17541 0.679,1.12974 1.86936,2.78393 2.64524,3.676 0.7759,0.89205 2.19356,2.25238 3.15037,3.02295 0.95681,0.77057 2.42712,1.83907 3.26735,2.37443 0.84023,0.53536 2.7398,1.58165 4.22127,2.32508 l 2.69357,1.3517 -3.55981,1.02172 c -1.9579,0.56195 -4.27418,1.28305 -5.14731,1.60245 -0.87312,0.3194 -2.72099,1.14337 -4.10636,1.83104 -1.38538,0.68767 -3.50225,1.97944 -4.70417,2.8706 -1.20191,0.89117 -3.11775,2.51116 -4.25741,3.59999 -1.13966,1.08883 -2.11841,1.97502 -2.175,1.96933 -0.0566,-0.006 -0.47835,-0.17371 -0.93723,-0.37336 z m 74.888184,-15.03109 c 0.20467,-0.47139 1.08213,-2.34535 1.94991,-4.16436 0.86778,-1.819 1.76306,-3.9026 1.9895,-4.6302 0.22644,-0.72761 0.49314,-1.79917 0.59266,-2.38125 0.0995,-0.58209 0.17218,-3.00712 0.16145,-5.38897 -0.0195,-4.33064 -0.0195,-4.33064 -0.98339,-6.08542 -0.53014,-0.96513 -1.55322,-2.495884 -2.27353,-3.401684 -0.7203,-0.90579 -2.28407,-2.55651 -3.47504,-3.66826 -1.19097,-1.11175 -5.14196,-4.41172 -8.77998,-7.33327 -3.63802,-2.92156 -7.68615,-6.20807 -8.99584,-7.30337 -1.30968,-1.095305 -3.18492,-2.758994 -4.16718,-3.697093 -0.98227,-0.938096 -1.78594,-1.864691 -1.78594,-2.059096 0,-0.235479 0.35024,-0.353467 1.04924,-0.353467 0.57708,0 2.39278,0.186637 4.03489,0.414747 1.64211,0.228113 4.66339,0.762879 6.71396,1.188366 2.05056,0.425489 4.9441,1.134803 6.43007,1.576255 1.48598,0.441449 4.21356,1.391989 6.06129,2.112306 1.84773,0.720322 4.84779,2.062872 6.6668,2.983462 1.81901,0.92058 4.16219,2.23854 5.20708,2.9288 1.04488,0.69025 2.89035,2.12216 4.10104,3.18202 1.21069,1.05986 3.30085,3.09027 4.6448,4.51202 1.627,1.72118 2.72503,3.15677 3.2859,4.29604 0.66213,1.34499 0.86767,2.14866 0.96075,3.756584 0.0905,1.56354 -0.0173,2.5403 -0.45764,4.14527 -0.31683,1.15485 -1.03005,3.06855 -1.58494,4.25265 -0.55489,1.1841 -1.51867,2.90359 -2.14174,3.8211 -0.62306,0.91751 -1.87034,2.40568 -2.77171,3.30706 -0.90138,0.90138 -2.52,2.15562 -3.59693,2.78719 -1.07694,0.63158 -3.80354,2.00045 -6.05911,3.04194 -2.25557,1.04149 -4.78672,2.14654 -5.62477,2.45566 -1.52372,0.56204 -1.52372,0.56204 -1.1516,-0.29503 z"
       id="path803" /></g></svg>
